<svg xmlns="http://www.w3.org/2000/svg" xmlns:xlink="http://www.w3.org/1999/xlink" width="500" zoomAndPan="magnify" viewBox="0 0 375 374.999991" height="500" preserveAspectRatio="xMidYMid meet" version="1.0"><defs><g/><clipPath id="eb4aa9f4bc"><path d="M 154.722656 126.796875 L 170.953125 126.796875 L 170.953125 188.019531 L 154.722656 188.019531 Z M 154.722656 126.796875 " clip-rule="nonzero"/></clipPath><clipPath id="e0026392bf"><path d="M 108.339844 108.339844 L 266.660156 108.339844 L 266.660156 266.660156 L 108.339844 266.660156 Z M 108.339844 108.339844 " clip-rule="nonzero"/></clipPath><clipPath id="31f0356bd4"><path d="M 187.5 108.339844 C 143.78125 108.339844 108.339844 143.78125 108.339844 187.5 C 108.339844 231.21875 143.78125 266.660156 187.5 266.660156 C 231.21875 266.660156 266.660156 231.21875 266.660156 187.5 C 266.660156 143.78125 231.21875 108.339844 187.5 108.339844 Z M 187.5 108.339844 " clip-rule="nonzero"/></clipPath></defs><g clip-path="url(#eb4aa9f4bc)"><path fill="#ffffff" d="M 154.722656 126.796875 L 170.953125 126.796875 L 170.953125 188.035156 L 154.722656 188.035156 Z M 154.722656 126.796875 " fill-opacity="1" fill-rule="nonzero"/></g><g clip-path="url(#e0026392bf)"><g clip-path="url(#31f0356bd4)"><path fill="#a8a379" d="M 108.339844 108.339844 L 266.660156 108.339844 L 266.660156 266.660156 L 108.339844 266.660156 Z M 108.339844 108.339844 " fill-opacity="1" fill-rule="nonzero"/></g></g><g fill="#ffffff" fill-opacity="1"><g transform="translate(136.124731, 226.369388)"><g><path d="M 18.703125 32.046875 C 15.742188 32.046875 13.304688 30.992188 11.390625 28.890625 C 9.296875 26.921875 8.25 24.390625 8.25 21.296875 L 8.25 -44.09375 C 8.25 -50.195312 9.421875 -56.015625 11.765625 -61.546875 C 14.109375 -67.078125 17.378906 -71.941406 21.578125 -76.140625 C 25.773438 -80.335938 30.617188 -83.59375 36.109375 -85.90625 C 41.609375 -88.21875 47.414062 -89.375 53.53125 -89.375 C 59.582031 -89.375 65.367188 -88.203125 70.890625 -85.859375 C 76.421875 -83.515625 81.253906 -80.273438 85.390625 -76.140625 C 89.535156 -71.941406 92.78125 -67.078125 95.125 -61.546875 C 97.46875 -56.015625 98.640625 -50.195312 98.640625 -44.09375 C 98.640625 -37.976562 97.476562 -32.1875 95.15625 -26.71875 C 92.84375 -21.257812 89.585938 -16.425781 85.390625 -12.21875 C 81.253906 -8.082031 76.421875 -4.84375 70.890625 -2.5 C 65.367188 -0.15625 59.582031 1.015625 53.53125 1.015625 C 44.582031 1.015625 36.34375 -1.453125 28.8125 -6.390625 L 28.8125 21.296875 C 28.8125 24.390625 27.898438 26.953125 26.078125 28.984375 C 24.253906 31.023438 21.796875 32.046875 18.703125 32.046875 Z M 53.53125 -19.546875 C 56.863281 -19.546875 60.023438 -20.175781 63.015625 -21.4375 C 66.015625 -22.707031 68.660156 -24.484375 70.953125 -26.765625 C 73.234375 -29.046875 74.988281 -31.671875 76.21875 -34.640625 C 77.457031 -37.609375 78.078125 -40.757812 78.078125 -44.09375 C 78.078125 -47.425781 77.457031 -50.570312 76.21875 -53.53125 C 74.988281 -56.5 73.234375 -59.125 70.953125 -61.40625 C 68.722656 -63.625 66.09375 -65.367188 63.0625 -66.640625 C 60.039062 -67.910156 56.863281 -68.546875 53.53125 -68.546875 C 50.195312 -68.546875 47.015625 -67.910156 43.984375 -66.640625 C 40.960938 -65.367188 38.34375 -63.625 36.125 -61.40625 C 33.832031 -59.125 32.050781 -56.5 30.78125 -53.53125 C 29.519531 -50.570312 28.890625 -47.425781 28.890625 -44.09375 C 28.890625 -40.757812 29.519531 -37.609375 30.78125 -34.640625 C 32.050781 -31.671875 33.832031 -29.046875 36.125 -26.765625 C 38.40625 -24.484375 41.039062 -22.707031 44.03125 -21.4375 C 47.03125 -20.175781 50.195312 -19.546875 53.53125 -19.546875 Z M 53.53125 -19.546875 "/></g></g></g></svg>