<svg xmlns="http://www.w3.org/2000/svg" width="500" zoomAndPan="magnify" viewBox="0 0 375 374.999991" height="500"
     preserveAspectRatio="xMidYMid meet" version="1.0"><defs><g/><clipPath id="5523e78049"><path d="M 143 100.660156 L 145 100.660156 L 145 120 L 143 120 Z M 143 100.660156 " clip-rule="nonzero"/></clipPath><clipPath id="3e1254600b"><path d="M 139 130 L 148 130 L 148 133.660156 L 139 133.660156 Z M 139 130 " clip-rule="nonzero"/></clipPath><clipPath id="8a52b879d1"><path d="M 134.132812 125 L 152.882812 125 L 152.882812 131 L 134.132812 131 Z M 134.132812 125 " clip-rule="nonzero"/></clipPath><clipPath id="d576f9c362"><path d="M 146 190 L 153 190 L 153 216.164062 L 146 216.164062 Z M 146 190 " clip-rule="nonzero"/></clipPath><clipPath id="1ec22cc341"><path d="M 123 190 L 129 190 L 129 216.164062 L 123 216.164062 Z M 123 190 " clip-rule="nonzero"/></clipPath><clipPath id="aa8e89595a"><path d="M 119 133.664062 L 156.902344 133.664062 L 156.902344 177 L 119 177 Z M 119 133.664062 " clip-rule="nonzero"/></clipPath><clipPath id="0aa1e2abf3"><path d="M 118.652344 176 L 156.902344 176 L 156.902344 190 L 118.652344 190 Z M 118.652344 176 " clip-rule="nonzero"/></clipPath><clipPath id="fb06519b0f"><path d="M 206 135.078125 L 209 135.078125 L 209 138 L 206 138 Z M 206 135.078125 " clip-rule="nonzero"/></clipPath><clipPath id="29d5bd78bb"><path d="M 194 135.078125 L 215 135.078125 L 215 171 L 194 171 Z M 194 135.078125 " clip-rule="nonzero"/></clipPath><clipPath id="f4051d7032"><path d="M 244 207 L 249 207 L 249 216.078125 L 244 216.078125 Z M 244 207 " clip-rule="nonzero"/></clipPath><clipPath id="8349bc1288"><path d="M 182 207 L 186 207 L 186 216.078125 L 182 216.078125 Z M 182 207 " clip-rule="nonzero"/></clipPath><clipPath id="3817635e24"><path d="M 173.71875 171 L 256.21875 171 L 256.21875 209 L 173.71875 209 Z M 173.71875 171 " clip-rule="nonzero"/></clipPath><clipPath id="9f8ec8fbc9"><path d="M 174 82.316406 L 175 82.316406 L 175 115 L 174 115 Z M 174 82.316406 " clip-rule="nonzero"/></clipPath><clipPath id="3a11c6c95b"><path d="M 166 133 L 182 133 L 182 138.566406 L 166 138.566406 Z M 166 133 " clip-rule="nonzero"/></clipPath><clipPath id="63a53c6527"><path d="M 158.015625 125 L 190.265625 125 L 190.265625 133 L 158.015625 133 Z M 158.015625 125 " clip-rule="nonzero"/></clipPath><clipPath id="0172408fc8"><path d="M 205 104.25 L 206 104.25 L 206 124 L 205 124 Z M 205 104.25 " clip-rule="nonzero"/></clipPath><clipPath id="834c854e02"><path d="M 200 135 L 210 135 L 210 138.75 L 200 138.75 Z M 200 135 " clip-rule="nonzero"/></clipPath><clipPath id="5cae4e14ba"><path d="M 195.21875 130 L 214.71875 130 L 214.71875 136 L 195.21875 136 Z M 195.21875 130 " clip-rule="nonzero"/></clipPath></defs><path fill="#ffffff" d="M 146.308594 125.476562 L 141.359375 125.476562 C 141.378906 125.453125 141.398438 125.425781 141.414062 125.402344 C 141.769531 124.9375 142.042969 124.429688 142.238281 123.882812 C 142.425781 123.390625 142.539062 122.882812 142.578125 122.359375 C 142.613281 121.910156 142.574219 121.46875 142.460938 121.035156 C 142.414062 120.851562 142.355469 120.675781 142.28125 120.503906 C 142.21875 120.363281 142.148438 120.226562 142.066406 120.097656 C 141.992188 119.96875 141.902344 119.851562 141.804688 119.742188 L 145.871094 119.742188 C 145.769531 119.851562 145.683594 119.96875 145.605469 120.097656 C 145.527344 120.226562 145.453125 120.363281 145.390625 120.503906 C 145.316406 120.675781 145.257812 120.855469 145.207031 121.035156 C 145.097656 121.472656 145.058594 121.914062 145.089844 122.363281 C 145.132812 122.886719 145.246094 123.390625 145.433594 123.882812 C 145.628906 124.433594 145.902344 124.9375 146.253906 125.402344 C 146.273438 125.425781 146.289062 125.453125 146.308594 125.476562 Z M 146.308594 125.476562 " fill-opacity="1" fill-rule="nonzero"/><g clip-path="url(#5523e78049)"><path fill="#ffffff" d="M 143.664062 100.671875 L 144.003906 100.671875 L 144.003906 119.390625 L 143.664062 119.390625 Z M 143.664062 100.671875 " fill-opacity="1" fill-rule="nonzero"/></g><g clip-path="url(#3e1254600b)"><path fill="#ffffff" d="M 139.265625 130.597656 L 147.953125 130.597656 L 147.953125 133.875 L 139.265625 133.875 Z M 139.265625 130.597656 " fill-opacity="1" fill-rule="nonzero"/></g><g clip-path="url(#8a52b879d1)"><path fill="#ffffff" d="M 134.132812 125.855469 L 153.089844 125.855469 L 153.089844 130.230469 L 134.132812 130.230469 Z M 134.132812 125.855469 " fill-opacity="1" fill-rule="nonzero"/></g><path stroke-linecap="butt" transform="matrix(0.75, 0, 0, 0.75, 99.861656, 222.584868)" fill="none" stroke-linejoin="miter" d="M 0.00216761 1.501426 L 233.7001 1.501426 " stroke="#ffffff" stroke-width="3" stroke-opacity="1" stroke-miterlimit="4"/><g fill="#ffffff" fill-opacity="1"><g transform="translate(137.674969, 282.761392)"><g><path d="M 2.265625 0 L 1.21875 0 L 1.21875 -8.90625 L 6.1875 -8.90625 L 6.1875 -7.984375 L 2.265625 -7.984375 L 2.265625 -4.71875 L 5.953125 -4.71875 L 5.953125 -3.8125 L 2.265625 -3.8125 Z M 2.265625 0 "/></g></g></g><g fill="#ffffff" fill-opacity="1"><g transform="translate(148.223823, 282.761392)"><g><path d="M 7.9375 -8.90625 L 7.9375 -3.140625 C 7.9375 -2.128906 7.628906 -1.332031 7.015625 -0.75 C 6.410156 -0.164062 5.570312 0.125 4.5 0.125 C 3.425781 0.125 2.59375 -0.164062 2 -0.75 C 1.414062 -1.332031 1.125 -2.140625 1.125 -3.171875 L 1.125 -8.90625 L 2.171875 -8.90625 L 2.171875 -3.09375 C 2.171875 -2.351562 2.375 -1.78125 2.78125 -1.375 C 3.1875 -0.976562 3.78125 -0.78125 4.5625 -0.78125 C 5.3125 -0.78125 5.890625 -0.976562 6.296875 -1.375 C 6.703125 -1.78125 6.90625 -2.359375 6.90625 -3.109375 L 6.90625 -8.90625 Z M 7.9375 -8.90625 "/></g></g></g><g fill="#ffffff" fill-opacity="1"><g transform="translate(161.413921, 282.761392)"><g><path d="M 2.265625 -3.703125 L 2.265625 0 L 1.21875 0 L 1.21875 -8.90625 L 3.671875 -8.90625 C 4.753906 -8.90625 5.554688 -8.691406 6.078125 -8.265625 C 6.609375 -7.847656 6.875 -7.222656 6.875 -6.390625 C 6.875 -5.210938 6.273438 -4.414062 5.078125 -4 L 7.5 0 L 6.265625 0 L 4.109375 -3.703125 Z M 2.265625 -4.59375 L 3.671875 -4.59375 C 4.398438 -4.59375 4.9375 -4.738281 5.28125 -5.03125 C 5.625 -5.320312 5.796875 -5.753906 5.796875 -6.328125 C 5.796875 -6.921875 5.617188 -7.347656 5.265625 -7.609375 C 4.921875 -7.867188 4.367188 -8 3.609375 -8 L 2.265625 -8 Z M 2.265625 -4.59375 "/></g></g></g><g fill="#ffffff" fill-opacity="1"><g transform="translate(173.234709, 282.761392)"><g><path d="M 8.171875 0 L 7 0 L 2.125 -7.46875 L 2.078125 -7.46875 C 2.140625 -6.59375 2.171875 -5.789062 2.171875 -5.0625 L 2.171875 0 L 1.21875 0 L 1.21875 -8.90625 L 2.390625 -8.90625 L 7.25 -1.46875 L 7.296875 -1.46875 C 7.285156 -1.570312 7.265625 -1.921875 7.234375 -2.515625 C 7.210938 -3.109375 7.203125 -3.535156 7.203125 -3.796875 L 7.203125 -8.90625 L 8.171875 -8.90625 Z M 8.171875 0 "/></g></g></g><g fill="#ffffff" fill-opacity="1"><g transform="translate(186.747357, 282.761392)"><g><path d="M 1.21875 0 L 1.21875 -8.90625 L 2.265625 -8.90625 L 2.265625 0 Z M 1.21875 0 "/></g></g></g><g fill="#ffffff" fill-opacity="1"><g transform="translate(194.338507, 282.761392)"><g><path d="M 3.96875 0 L 2.921875 0 L 2.921875 -7.984375 L 0.109375 -7.984375 L 0.109375 -8.90625 L 6.78125 -8.90625 L 6.78125 -7.984375 L 3.96875 -7.984375 Z M 3.96875 0 "/></g></g></g><g fill="#ffffff" fill-opacity="1"><g transform="translate(205.349886, 282.761392)"><g><path d="M 7.9375 -8.90625 L 7.9375 -3.140625 C 7.9375 -2.128906 7.628906 -1.332031 7.015625 -0.75 C 6.410156 -0.164062 5.570312 0.125 4.5 0.125 C 3.425781 0.125 2.59375 -0.164062 2 -0.75 C 1.414062 -1.332031 1.125 -2.140625 1.125 -3.171875 L 1.125 -8.90625 L 2.171875 -8.90625 L 2.171875 -3.09375 C 2.171875 -2.351562 2.375 -1.78125 2.78125 -1.375 C 3.1875 -0.976562 3.78125 -0.78125 4.5625 -0.78125 C 5.3125 -0.78125 5.890625 -0.976562 6.296875 -1.375 C 6.703125 -1.78125 6.90625 -2.359375 6.90625 -3.109375 L 6.90625 -8.90625 Z M 7.9375 -8.90625 "/></g></g></g><g fill="#ffffff" fill-opacity="1"><g transform="translate(218.539985, 282.761392)"><g><path d="M 2.265625 -3.703125 L 2.265625 0 L 1.21875 0 L 1.21875 -8.90625 L 3.671875 -8.90625 C 4.753906 -8.90625 5.554688 -8.691406 6.078125 -8.265625 C 6.609375 -7.847656 6.875 -7.222656 6.875 -6.390625 C 6.875 -5.210938 6.273438 -4.414062 5.078125 -4 L 7.5 0 L 6.265625 0 L 4.109375 -3.703125 Z M 2.265625 -4.59375 L 3.671875 -4.59375 C 4.398438 -4.59375 4.9375 -4.738281 5.28125 -5.03125 C 5.625 -5.320312 5.796875 -5.753906 5.796875 -6.328125 C 5.796875 -6.921875 5.617188 -7.347656 5.265625 -7.609375 C 4.921875 -7.867188 4.367188 -8 3.609375 -8 L 2.265625 -8 Z M 2.265625 -4.59375 "/></g></g></g><g fill="#ffffff" fill-opacity="1"><g transform="translate(230.360777, 282.761392)"><g><path d="M 6.1875 0 L 1.21875 0 L 1.21875 -8.90625 L 6.1875 -8.90625 L 6.1875 -7.984375 L 2.265625 -7.984375 L 2.265625 -5.109375 L 5.953125 -5.109375 L 5.953125 -4.203125 L 2.265625 -4.203125 L 2.265625 -0.921875 L 6.1875 -0.921875 Z M 6.1875 0 "/></g></g></g><g clip-path="url(#d576f9c362)"><path fill="#ffffff" d="M 146.976562 190.914062 L 147.558594 216.261719 L 151.117188 216.261719 L 152.488281 190.8125 C 150.835938 190.894531 148.980469 190.914062 146.976562 190.914062 Z M 146.976562 190.914062 " fill-opacity="1" fill-rule="nonzero"/></g><g clip-path="url(#1ec22cc341)"><path fill="#ffffff" d="M 124.464844 216.261719 L 128.023438 216.261719 L 128.609375 190.773438 C 126.597656 190.71875 124.734375 190.628906 123.078125 190.464844 Z M 124.464844 216.261719 " fill-opacity="1" fill-rule="nonzero"/></g><g clip-path="url(#aa8e89595a)"><path fill="#ffffff" d="M 127.421875 176.796875 C 130.796875 175.734375 134.253906 175.199219 137.792969 175.195312 C 141.285156 175.207031 144.683594 175.777344 147.992188 176.910156 C 149.25 176.070312 150.386719 175.09375 151.402344 173.972656 C 152.421875 172.851562 153.285156 171.625 154 170.292969 C 154.714844 168.957031 155.253906 167.558594 155.621094 166.089844 C 155.988281 164.621094 156.171875 163.132812 156.171875 161.621094 C 156.171875 151.46875 147.941406 133.699219 137.792969 133.699219 C 127.640625 133.699219 119.414062 151.46875 119.414062 161.621094 C 119.410156 163.113281 119.589844 164.589844 119.949219 166.039062 C 120.308594 167.492188 120.835938 168.878906 121.535156 170.203125 C 122.234375 171.523438 123.078125 172.742188 124.074219 173.859375 C 125.070312 174.976562 126.1875 175.953125 127.421875 176.796875 Z M 127.421875 176.796875 " fill-opacity="1" fill-rule="nonzero"/></g><g clip-path="url(#0aa1e2abf3)"><path fill="#ffffff" d="M 137.792969 176.453125 C 127.222656 176.453125 118.652344 182.34375 118.652344 185.976562 C 118.652344 189.605469 127.222656 189.601562 137.792969 189.601562 C 148.363281 189.601562 156.929688 190.289062 156.929688 186.660156 C 156.929688 183.027344 148.363281 176.453125 137.792969 176.453125 Z M 137.792969 176.453125 " fill-opacity="1" fill-rule="nonzero"/></g><path fill="#ffffff" d="M 218.332031 170.421875 C 218.269531 170.132812 218.226562 169.84375 218.199219 169.550781 C 218.125 168.789062 218.105469 168.027344 218.136719 167.261719 C 218.179688 166.175781 218.292969 165.09375 218.476562 164.023438 C 218.6875 162.769531 218.972656 161.53125 219.324219 160.308594 C 219.496094 159.679688 219.910156 159.046875 220.464844 158.425781 C 220.75 158.113281 221.03125 157.804688 221.3125 157.5 C 221.578125 157.21875 221.824219 156.917969 222.046875 156.597656 C 222.242188 156.328125 222.402344 156.035156 222.523438 155.726562 C 222.621094 155.453125 222.703125 155.175781 222.765625 154.890625 C 222.882812 154.386719 222.957031 153.878906 222.984375 153.359375 C 223.03125 152.414062 222.882812 151.621094 222.695312 151.070312 C 222.515625 150.519531 222.292969 150.203125 222.292969 150.203125 L 227.238281 150.203125 C 227.238281 150.203125 227.011719 150.515625 226.832031 151.066406 C 226.644531 151.621094 226.496094 152.410156 226.542969 153.359375 C 226.570312 153.875 226.644531 154.386719 226.761719 154.890625 C 226.824219 155.171875 226.90625 155.449219 227.003906 155.722656 C 227.125 156.035156 227.285156 156.324219 227.480469 156.597656 C 227.703125 156.917969 227.949219 157.214844 228.214844 157.5 L 229.0625 158.421875 C 229.613281 159.046875 230.03125 159.675781 230.203125 160.308594 C 230.554688 161.53125 230.839844 162.769531 231.050781 164.019531 C 231.234375 165.09375 231.347656 166.171875 231.390625 167.257812 C 231.421875 168.023438 231.402344 168.789062 231.328125 169.550781 C 231.300781 169.84375 231.257812 170.132812 231.195312 170.417969 Z M 218.332031 170.421875 " fill-opacity="1" fill-rule="nonzero"/><g clip-path="url(#fb06519b0f)"><path fill="#ffffff" d="M 207.90625 135.207031 C 207.574219 135.078125 207.035156 135.621094 206.535156 136.515625 L 208.042969 137.09375 C 208.273438 136.097656 208.238281 135.335938 207.90625 135.207031 Z M 207.90625 135.207031 " fill-opacity="1" fill-rule="nonzero"/></g><g clip-path="url(#29d5bd78bb)"><path fill="#ffffff" d="M 209.953125 147.886719 C 211.195312 148.667969 213.019531 148.21875 214.167969 146.800781 C 214.226562 146.730469 214.277344 146.65625 214.328125 146.582031 L 212.949219 145.46875 L 212.800781 145.347656 L 211.519531 144.3125 L 211.21875 144.066406 L 209.867188 142.976562 C 209.808594 143.042969 209.746094 143.109375 209.691406 143.179688 C 208.527344 144.617188 208.488281 146.535156 209.554688 147.574219 C 209.144531 148.171875 208.074219 149.847656 207 152.609375 C 206.855469 152.988281 206.703125 153.394531 206.554688 153.828125 L 205.609375 153.828125 C 205.128906 150.613281 205.101562 147.9375 205.21875 145.96875 C 205.386719 143.113281 205.875 141.210938 206.078125 140.515625 C 207.5 140.875 209.101562 139.886719 209.757812 138.1875 C 209.792969 138.101562 209.820312 138.015625 209.84375 137.929688 L 208.390625 137.371094 L 208.011719 137.222656 L 206.472656 136.628906 L 206.117188 136.492188 L 204.496094 135.867188 C 204.457031 135.949219 204.417969 136.027344 204.386719 136.113281 C 203.722656 137.839844 204.269531 139.675781 205.609375 140.339844 C 205.398438 141.035156 204.898438 142.957031 204.722656 145.914062 C 204.601562 147.902344 204.628906 150.59375 205.101562 153.828125 L 204 153.828125 C 203.421875 152.429688 202.75 151.082031 201.980469 149.777344 C 201.054688 148.195312 199.988281 146.710938 198.78125 145.332031 C 199.949219 144.296875 199.910156 142.296875 198.679688 140.832031 C 198.621094 140.761719 198.558594 140.699219 198.496094 140.632812 L 197.195312 141.726562 L 196.996094 141.894531 L 195.730469 142.953125 L 195.554688 143.101562 L 194.101562 144.320312 C 194.15625 144.390625 194.207031 144.464844 194.265625 144.535156 C 195.394531 145.882812 197.140625 146.316406 198.367188 145.628906 C 199.574219 147 200.636719 148.476562 201.5625 150.054688 C 202.277344 151.269531 202.90625 152.527344 203.453125 153.828125 L 201.613281 153.828125 C 201.613281 153.828125 201.84375 154.144531 202.113281 154.597656 C 202.183594 154.710938 202.253906 154.894531 202.324219 155.03125 C 202.394531 155.164062 202.46875 155.3125 202.539062 155.46875 C 202.699219 155.808594 202.832031 156.160156 202.941406 156.519531 C 203.199219 157.382812 203.335938 158.261719 203.355469 159.160156 C 203.375 160.179688 203.269531 161.1875 203.035156 162.183594 C 202.796875 163.238281 202.425781 164.246094 201.925781 165.207031 C 201.675781 165.6875 201.398438 166.152344 201.09375 166.597656 C 200.941406 166.820312 200.777344 167.035156 200.625 167.242188 C 200.46875 167.453125 200.296875 167.652344 200.144531 167.84375 C 199.972656 168.039062 199.804688 168.222656 199.652344 168.398438 L 199.160156 168.898438 C 198.835938 169.214844 198.535156 169.488281 198.261719 169.710938 C 198 169.9375 197.746094 170.113281 197.59375 170.234375 C 197.515625 170.296875 197.441406 170.34375 197.398438 170.371094 L 197.328125 170.421875 L 214.144531 170.421875 L 214.074219 170.371094 C 214.03125 170.34375 213.957031 170.296875 213.878906 170.234375 C 213.726562 170.113281 213.472656 169.9375 213.210938 169.710938 C 212.945312 169.488281 212.636719 169.214844 212.308594 168.898438 L 211.820312 168.398438 L 211.328125 167.84375 C 211.175781 167.652344 211.003906 167.449219 210.847656 167.242188 C 210.695312 167.035156 210.53125 166.820312 210.378906 166.597656 C 210.074219 166.152344 209.796875 165.6875 209.546875 165.207031 C 209.046875 164.246094 208.675781 163.238281 208.4375 162.183594 C 208.203125 161.1875 208.097656 160.175781 208.121094 159.15625 C 208.136719 158.257812 208.277344 157.375 208.535156 156.515625 C 208.644531 156.152344 208.777344 155.796875 208.9375 155.453125 C 209.007812 155.296875 209.074219 155.132812 209.152344 155 C 209.226562 154.863281 209.289062 154.707031 209.359375 154.597656 C 209.628906 154.144531 209.863281 153.828125 209.863281 153.828125 L 207.082031 153.828125 C 207.210938 153.472656 207.332031 153.132812 207.457031 152.816406 C 208.492188 150.148438 209.542969 148.488281 209.953125 147.886719 Z M 209.953125 147.886719 " fill-opacity="1" fill-rule="nonzero"/></g><path fill="#ffffff" d="M 213.320312 143.398438 C 213.046875 143.175781 212.390625 143.511719 211.660156 144.179688 L 212.886719 145.203125 C 213.398438 144.339844 213.59375 143.617188 213.320312 143.398438 Z M 213.320312 143.398438 " fill-opacity="1" fill-rule="nonzero"/><path fill="#ffffff" d="M 196.792969 141.71875 C 196.074219 141.09375 195.4375 140.792969 195.175781 141.011719 C 194.914062 141.230469 195.097656 141.910156 195.585938 142.726562 Z M 196.792969 141.71875 " fill-opacity="1" fill-rule="nonzero"/><g clip-path="url(#f4051d7032)"><path fill="#ffffff" d="M 244.191406 207.578125 L 244.363281 216.289062 L 247.867188 216.289062 L 248.039062 207.578125 Z M 244.191406 207.578125 " fill-opacity="1" fill-rule="nonzero"/></g><g clip-path="url(#8349bc1288)"><path fill="#ffffff" d="M 182.03125 207.578125 L 182.203125 216.289062 L 185.707031 216.289062 L 185.882812 207.578125 Z M 182.03125 207.578125 " fill-opacity="1" fill-rule="nonzero"/></g><g clip-path="url(#3817635e24)"><path fill="#ffffff" d="M 173.722656 171.234375 L 173.722656 208.183594 L 256.347656 208.183594 L 256.347656 171.234375 Z M 253.4375 203.992188 L 176.777344 203.992188 L 176.777344 175.550781 L 253.4375 175.550781 Z M 253.4375 203.992188 " fill-opacity="1" fill-rule="nonzero"/></g><path fill="#ffffff" d="M 178.667969 176.25 L 178.667969 203.289062 L 213.929688 203.289062 L 213.929688 176.25 Z M 204.332031 183.273438 L 189.277344 183.273438 L 189.277344 180.917969 L 204.332031 180.917969 Z M 215.953125 176.25 L 215.953125 203.289062 L 251.542969 203.289062 L 251.542969 176.25 Z M 241.261719 183.273438 L 226.210938 183.273438 L 226.210938 180.917969 L 241.265625 180.917969 Z M 241.261719 183.273438 " fill-opacity="1" fill-rule="nonzero"/><path fill="#ffffff" d="M 178.667969 176.25 L 178.667969 203.289062 L 213.929688 203.289062 L 213.929688 176.25 Z M 204.332031 183.273438 L 189.277344 183.273438 L 189.277344 180.917969 L 204.332031 180.917969 Z M 204.332031 183.273438 " fill-opacity="1" fill-rule="nonzero"/><path fill="#ffffff" d="M 178.75 124.566406 L 170.324219 124.566406 C 170.355469 124.527344 170.386719 124.484375 170.417969 124.445312 C 171.015625 123.652344 171.484375 122.785156 171.820312 121.851562 C 172.136719 121.015625 172.328125 120.152344 172.398438 119.261719 C 172.457031 118.496094 172.390625 117.746094 172.199219 117.003906 C 172.121094 116.695312 172.015625 116.394531 171.890625 116.105469 C 171.785156 115.863281 171.664062 115.632812 171.523438 115.40625 C 171.394531 115.191406 171.246094 114.988281 171.078125 114.800781 L 178.003906 114.800781 C 177.832031 114.988281 177.683594 115.191406 177.554688 115.40625 C 177.417969 115.632812 177.292969 115.863281 177.1875 116.105469 C 177.0625 116.394531 176.957031 116.695312 176.875 117.007812 C 176.6875 117.75 176.621094 118.5 176.675781 119.265625 C 176.746094 120.15625 176.941406 121.019531 177.257812 121.855469 C 177.589844 122.789062 178.058594 123.652344 178.65625 124.445312 C 178.6875 124.484375 178.71875 124.527344 178.75 124.566406 Z M 178.75 124.566406 " fill-opacity="1" fill-rule="nonzero"/><g clip-path="url(#9f8ec8fbc9)"><path fill="#ffffff" d="M 174.246094 82.328125 L 174.828125 82.328125 L 174.828125 114.207031 L 174.246094 114.207031 Z M 174.246094 82.328125 " fill-opacity="1" fill-rule="nonzero"/></g><g clip-path="url(#3a11c6c95b)"><path fill="#ffffff" d="M 166.757812 133.289062 L 181.550781 133.289062 L 181.550781 138.867188 L 166.757812 138.867188 Z M 166.757812 133.289062 " fill-opacity="1" fill-rule="nonzero"/></g><g clip-path="url(#63a53c6527)"><path fill="#ffffff" d="M 158.011719 125.210938 L 190.296875 125.210938 L 190.296875 132.660156 L 158.011719 132.660156 Z M 158.011719 125.210938 " fill-opacity="1" fill-rule="nonzero"/></g><path fill="#ffffff" d="M 207.9375 130.171875 L 202.769531 130.171875 C 202.789062 130.148438 202.808594 130.125 202.828125 130.097656 C 203.195312 129.613281 203.480469 129.082031 203.6875 128.507812 C 203.882812 127.996094 204 127.464844 204.042969 126.917969 C 204.078125 126.449219 204.035156 125.988281 203.921875 125.535156 C 203.871094 125.34375 203.808594 125.160156 203.730469 124.980469 C 203.664062 124.835938 203.589844 124.691406 203.507812 124.554688 C 203.429688 124.421875 203.335938 124.296875 203.230469 124.183594 L 207.480469 124.183594 C 207.375 124.296875 207.285156 124.421875 207.207031 124.554688 C 207.121094 124.691406 207.046875 124.835938 206.980469 124.980469 C 206.902344 125.160156 206.839844 125.347656 206.789062 125.535156 C 206.671875 125.992188 206.632812 126.453125 206.667969 126.921875 C 206.710938 127.46875 206.828125 127.996094 207.023438 128.511719 C 207.226562 129.082031 207.515625 129.613281 207.882812 130.097656 C 207.898438 130.125 207.917969 130.148438 207.9375 130.171875 Z M 207.9375 130.171875 " fill-opacity="1" fill-rule="nonzero"/><g clip-path="url(#0172408fc8)"><path fill="#ffffff" d="M 205.175781 104.265625 L 205.53125 104.265625 L 205.53125 123.816406 L 205.175781 123.816406 Z M 205.175781 104.265625 " fill-opacity="1" fill-rule="nonzero"/></g><g clip-path="url(#834c854e02)"><path fill="#ffffff" d="M 200.582031 135.523438 L 209.65625 135.523438 L 209.65625 138.945312 L 200.582031 138.945312 Z M 200.582031 135.523438 " fill-opacity="1" fill-rule="nonzero"/></g><g clip-path="url(#5cae4e14ba)"><path fill="#ffffff" d="M 195.21875 130.570312 L 215.023438 130.570312 L 215.023438 135.136719 L 195.21875 135.136719 Z M 195.21875 130.570312 " fill-opacity="1" fill-rule="nonzero"/></g><g fill="#ffffff" fill-opacity="1"><g transform="translate(68.899035, 262.095412)"><g><path d="M 1.828125 -27.453125 L 7.734375 -27.453125 C 10.816406 -27.453125 13.15625 -26.863281 14.75 -25.6875 C 16.34375 -24.507812 17.140625 -22.835938 17.140625 -20.671875 C 17.140625 -19.503906 16.859375 -18.460938 16.296875 -17.546875 C 15.742188 -16.640625 15.015625 -15.875 14.109375 -15.25 C 13.210938 -14.625 12.203125 -14.144531 11.078125 -13.8125 C 9.960938 -13.476562 8.847656 -13.3125 7.734375 -13.3125 L 6.15625 -13.3125 L 6.15625 -2.703125 C 6.15625 -2.484375 6.179688 -2.238281 6.234375 -1.96875 C 6.296875 -1.707031 6.390625 -1.46875 6.515625 -1.25 C 6.640625 -1.03125 6.773438 -0.835938 6.921875 -0.671875 C 7.078125 -0.503906 7.265625 -0.421875 7.484375 -0.421875 L 7.6875 -0.421875 L 7.6875 0 L 1.828125 0 L 1.828125 -0.421875 L 2.03125 -0.421875 C 2.226562 -0.421875 2.410156 -0.503906 2.578125 -0.671875 C 2.742188 -0.835938 2.878906 -1.03125 2.984375 -1.25 C 3.097656 -1.46875 3.179688 -1.707031 3.234375 -1.96875 C 3.296875 -2.238281 3.328125 -2.484375 3.328125 -2.703125 L 3.328125 -24.875 C 3.328125 -25.257812 3.210938 -25.703125 2.984375 -26.203125 C 2.765625 -26.703125 2.445312 -26.976562 2.03125 -27.03125 L 1.828125 -27.03125 Z M 6.15625 -26 L 6.15625 -14.765625 L 7.40625 -14.765625 C 8.507812 -14.765625 9.5 -14.914062 10.375 -15.21875 C 11.25 -15.53125 11.976562 -15.929688 12.5625 -16.421875 C 13.144531 -16.921875 13.585938 -17.488281 13.890625 -18.125 C 14.191406 -18.769531 14.34375 -19.425781 14.34375 -20.09375 C 14.34375 -20.894531 14.210938 -21.648438 13.953125 -22.359375 C 13.691406 -23.066406 13.257812 -23.691406 12.65625 -24.234375 C 12.0625 -24.773438 11.28125 -25.203125 10.3125 -25.515625 C 9.34375 -25.835938 8.148438 -26 6.734375 -26 Z M 6.15625 -26 "/></g></g></g><g fill="#ffffff" fill-opacity="1"><g transform="translate(87.698195, 262.095412)"><g><path d="M 7.53125 -0.421875 L 7.734375 -0.421875 L 7.734375 0 L 1.875 0 L 1.875 -0.421875 L 2.078125 -0.421875 C 2.273438 -0.421875 2.457031 -0.503906 2.625 -0.671875 C 2.789062 -0.835938 2.9375 -1.03125 3.0625 -1.25 C 3.1875 -1.46875 3.273438 -1.707031 3.328125 -1.96875 C 3.378906 -2.238281 3.40625 -2.484375 3.40625 -2.703125 L 3.40625 -24.875 C 3.40625 -25.070312 3.378906 -25.289062 3.328125 -25.53125 C 3.273438 -25.78125 3.1875 -26.015625 3.0625 -26.234375 C 2.9375 -26.460938 2.789062 -26.648438 2.625 -26.796875 C 2.457031 -26.953125 2.273438 -27.03125 2.078125 -27.03125 L 1.875 -27.03125 L 1.875 -27.453125 L 9.109375 -27.453125 C 11.878906 -27.453125 14.019531 -26.910156 15.53125 -25.828125 C 17.039062 -24.742188 17.796875 -23.148438 17.796875 -21.046875 C 17.796875 -19.992188 17.625 -19.070312 17.28125 -18.28125 C 16.9375 -17.488281 16.472656 -16.804688 15.890625 -16.234375 C 15.304688 -15.671875 14.617188 -15.210938 13.828125 -14.859375 C 13.035156 -14.515625 12.195312 -14.257812 11.3125 -14.09375 L 14.3125 -9.53125 C 15.03125 -8.414062 15.765625 -7.320312 16.515625 -6.25 C 17.265625 -5.1875 18 -4.085938 18.71875 -2.953125 C 18.914062 -2.671875 19.128906 -2.378906 19.359375 -2.078125 C 19.597656 -1.773438 19.847656 -1.5 20.109375 -1.25 C 20.367188 -1 20.644531 -0.796875 20.9375 -0.640625 C 21.226562 -0.492188 21.53125 -0.421875 21.84375 -0.421875 L 21.84375 0 L 20.046875 0 C 18.941406 0 18.035156 -0.269531 17.328125 -0.8125 C 16.617188 -1.351562 16.03125 -1.984375 15.5625 -2.703125 C 14.3125 -4.535156 13.066406 -6.394531 11.828125 -8.28125 C 10.597656 -10.164062 9.375 -12.019531 8.15625 -13.84375 C 7.84375 -13.875 7.515625 -13.910156 7.171875 -13.953125 C 6.828125 -13.992188 6.503906 -14.039062 6.203125 -14.09375 L 6.203125 -2.703125 C 6.203125 -2.484375 6.226562 -2.238281 6.28125 -1.96875 C 6.332031 -1.707031 6.421875 -1.46875 6.546875 -1.25 C 6.671875 -1.03125 6.8125 -0.835938 6.96875 -0.671875 C 7.125 -0.503906 7.3125 -0.421875 7.53125 -0.421875 Z M 6.203125 -26.03125 L 6.203125 -15.46875 L 6.40625 -15.46875 C 6.625 -15.445312 6.972656 -15.425781 7.453125 -15.40625 C 7.941406 -15.394531 8.550781 -15.390625 9.28125 -15.390625 C 9.863281 -15.390625 10.476562 -15.476562 11.125 -15.65625 C 11.78125 -15.84375 12.390625 -16.148438 12.953125 -16.578125 C 13.523438 -17.003906 14 -17.5625 14.375 -18.25 C 14.75 -18.945312 14.9375 -19.820312 14.9375 -20.875 C 14.9375 -21.925781 14.734375 -22.785156 14.328125 -23.453125 C 13.921875 -24.117188 13.363281 -24.644531 12.65625 -25.03125 C 11.957031 -25.425781 11.109375 -25.691406 10.109375 -25.828125 C 9.109375 -25.960938 8.015625 -26.03125 6.828125 -26.03125 Z M 6.203125 -26.03125 "/></g></g></g><g fill="#ffffff" fill-opacity="1"><g transform="translate(110.157364, 262.095412)"><g><path d="M 1.875 -0.421875 L 2.078125 -0.421875 C 2.296875 -0.421875 2.488281 -0.492188 2.65625 -0.640625 C 2.820312 -0.796875 2.96875 -0.984375 3.09375 -1.203125 C 3.21875 -1.421875 3.316406 -1.65625 3.390625 -1.90625 C 3.460938 -2.15625 3.5 -2.394531 3.5 -2.625 L 3.5 -24.875 C 3.5 -25.070312 3.460938 -25.289062 3.390625 -25.53125 C 3.316406 -25.78125 3.21875 -26.015625 3.09375 -26.234375 C 2.96875 -26.460938 2.820312 -26.648438 2.65625 -26.796875 C 2.488281 -26.953125 2.296875 -27.03125 2.078125 -27.03125 L 1.875 -27.03125 L 1.875 -27.453125 L 17.890625 -27.453125 L 17.890625 -23.578125 L 17.46875 -23.578125 C 17.414062 -24.222656 17.164062 -24.785156 16.71875 -25.265625 C 16.28125 -25.753906 15.585938 -26 14.640625 -26 L 6.28125 -26 L 6.28125 -15.46875 L 13.1875 -15.46875 C 13.820312 -15.46875 14.351562 -15.660156 14.78125 -16.046875 C 15.21875 -16.441406 15.4375 -16.898438 15.4375 -17.421875 L 15.84375 -17.421875 L 15.84375 -12.234375 L 15.4375 -12.234375 C 15.4375 -12.734375 15.226562 -13.160156 14.8125 -13.515625 C 14.394531 -13.878906 13.851562 -14.0625 13.1875 -14.0625 L 6.28125 -14.0625 L 6.28125 -1.453125 L 15.390625 -1.453125 C 15.921875 -1.453125 16.378906 -1.578125 16.765625 -1.828125 C 17.148438 -2.078125 17.472656 -2.375 17.734375 -2.71875 C 18.003906 -3.070312 18.203125 -3.445312 18.328125 -3.84375 C 18.453125 -4.25 18.515625 -4.585938 18.515625 -4.859375 L 18.921875 -4.859375 L 18.921875 0 L 1.875 0 Z M 1.875 -0.421875 "/></g></g></g><g fill="#ffffff" fill-opacity="1"><g transform="translate(130.329035, 262.095412)"><g><path d="M 18.71875 -7.359375 C 18.71875 -5.972656 18.4375 -4.785156 17.875 -3.796875 C 17.320312 -2.816406 16.609375 -2.019531 15.734375 -1.40625 C 14.867188 -0.800781 13.882812 -0.359375 12.78125 -0.078125 C 11.6875 0.191406 10.601562 0.328125 9.53125 0.328125 C 8.414062 0.328125 7.457031 0.21875 6.65625 0 C 5.851562 -0.21875 5.117188 -0.425781 4.453125 -0.625 C 4.003906 -0.757812 3.597656 -0.875 3.234375 -0.96875 C 2.878906 -1.070312 2.519531 -1.125 2.15625 -1.125 L 2.15625 -5.859375 L 2.578125 -5.859375 C 2.578125 -4.804688 2.847656 -3.96875 3.390625 -3.34375 C 3.929688 -2.71875 4.5625 -2.238281 5.28125 -1.90625 C 6 -1.582031 6.71875 -1.367188 7.4375 -1.265625 C 8.164062 -1.171875 8.695312 -1.125 9.03125 -1.125 C 10.21875 -1.125 11.238281 -1.296875 12.09375 -1.640625 C 12.957031 -1.984375 13.664062 -2.441406 14.21875 -3.015625 C 14.78125 -3.585938 15.191406 -4.21875 15.453125 -4.90625 C 15.710938 -5.601562 15.84375 -6.3125 15.84375 -7.03125 C 15.84375 -7.945312 15.648438 -8.71875 15.265625 -9.34375 C 14.878906 -9.96875 14.375 -10.515625 13.75 -10.984375 C 13.125 -11.453125 12.410156 -11.851562 11.609375 -12.1875 C 10.804688 -12.519531 9.988281 -12.851562 9.15625 -13.1875 C 8.207031 -13.539062 7.273438 -13.910156 6.359375 -14.296875 C 5.441406 -14.691406 4.625 -15.171875 3.90625 -15.734375 C 3.1875 -16.304688 2.601562 -16.988281 2.15625 -17.78125 C 1.71875 -18.570312 1.5 -19.550781 1.5 -20.71875 C 1.5 -21.9375 1.734375 -22.992188 2.203125 -23.890625 C 2.671875 -24.796875 3.300781 -25.539062 4.09375 -26.125 C 4.882812 -26.707031 5.785156 -27.144531 6.796875 -27.4375 C 7.804688 -27.726562 8.84375 -27.875 9.90625 -27.875 C 10.625 -27.875 11.300781 -27.820312 11.9375 -27.71875 C 12.570312 -27.625 13.179688 -27.507812 13.765625 -27.375 C 14.234375 -27.257812 14.691406 -27.164062 15.140625 -27.09375 C 15.585938 -27.03125 16.015625 -27 16.421875 -27 L 16.421875 -22.703125 L 16.015625 -22.703125 C 15.960938 -24.148438 15.394531 -25.128906 14.3125 -25.640625 C 13.226562 -26.148438 11.726562 -26.40625 9.8125 -26.40625 C 8.707031 -26.40625 7.800781 -26.21875 7.09375 -25.84375 C 6.382812 -25.46875 5.820312 -25.007812 5.40625 -24.46875 C 4.988281 -23.9375 4.703125 -23.359375 4.546875 -22.734375 C 4.398438 -22.109375 4.328125 -21.5625 4.328125 -21.09375 C 4.328125 -20.3125 4.5 -19.644531 4.84375 -19.09375 C 5.1875 -18.539062 5.648438 -18.054688 6.234375 -17.640625 C 6.816406 -17.222656 7.488281 -16.847656 8.25 -16.515625 C 9.019531 -16.179688 9.816406 -15.863281 10.640625 -15.5625 C 11.585938 -15.195312 12.546875 -14.804688 13.515625 -14.390625 C 14.484375 -13.972656 15.347656 -13.457031 16.109375 -12.84375 C 16.878906 -12.238281 17.503906 -11.492188 17.984375 -10.609375 C 18.472656 -9.722656 18.71875 -8.640625 18.71875 -7.359375 Z M 18.71875 -7.359375 "/></g></g></g><g fill="#ffffff" fill-opacity="1"><g transform="translate(150.70866, 262.095412)"><g><path d="M 12.390625 -0.421875 L 12.609375 -0.421875 L 12.609375 0 L 6.703125 0 L 6.703125 -0.421875 L 6.90625 -0.421875 C 7.125 -0.421875 7.316406 -0.503906 7.484375 -0.671875 C 7.648438 -0.835938 7.796875 -1.03125 7.921875 -1.25 C 8.046875 -1.46875 8.132812 -1.707031 8.1875 -1.96875 C 8.25 -2.238281 8.28125 -2.484375 8.28125 -2.703125 L 8.28125 -25.90625 L 3.453125 -25.90625 C 3.003906 -25.90625 2.613281 -25.804688 2.28125 -25.609375 C 1.945312 -25.421875 1.671875 -25.179688 1.453125 -24.890625 C 1.234375 -24.597656 1.066406 -24.28125 0.953125 -23.9375 C 0.847656 -23.59375 0.796875 -23.253906 0.796875 -22.921875 L 0.375 -22.921875 L 0.375 -27.453125 L 19.046875 -27.453125 L 19.046875 -22.921875 L 18.640625 -22.921875 C 18.640625 -23.253906 18.582031 -23.59375 18.46875 -23.9375 C 18.351562 -24.28125 18.1875 -24.597656 17.96875 -24.890625 C 17.75 -25.179688 17.472656 -25.421875 17.140625 -25.609375 C 16.804688 -25.804688 16.414062 -25.90625 15.96875 -25.90625 L 11.0625 -25.90625 L 11.0625 -2.703125 C 11.0625 -2.484375 11.085938 -2.238281 11.140625 -1.96875 C 11.203125 -1.707031 11.296875 -1.46875 11.421875 -1.25 C 11.546875 -1.03125 11.679688 -0.835938 11.828125 -0.671875 C 11.984375 -0.503906 12.171875 -0.421875 12.390625 -0.421875 Z M 12.390625 -0.421875 "/></g></g></g><g fill="#ffffff" fill-opacity="1"><g transform="translate(170.173274, 262.095412)"><g><path d="M 2.03125 -27.453125 L 7.984375 -27.453125 L 7.984375 -27.03125 L 7.78125 -27.03125 C 7.582031 -27.03125 7.398438 -26.953125 7.234375 -26.796875 C 7.066406 -26.648438 6.925781 -26.472656 6.8125 -26.265625 C 6.707031 -26.054688 6.617188 -25.820312 6.546875 -25.5625 C 6.484375 -25.300781 6.453125 -25.070312 6.453125 -24.875 L 6.453125 -2.703125 C 6.453125 -2.484375 6.476562 -2.238281 6.53125 -1.96875 C 6.582031 -1.707031 6.671875 -1.46875 6.796875 -1.25 C 6.921875 -1.03125 7.054688 -0.835938 7.203125 -0.671875 C 7.359375 -0.503906 7.550781 -0.421875 7.78125 -0.421875 L 7.984375 -0.421875 L 7.984375 0 L 2.03125 0 L 2.03125 -0.421875 L 2.25 -0.421875 C 2.46875 -0.421875 2.660156 -0.492188 2.828125 -0.640625 C 2.992188 -0.796875 3.140625 -0.988281 3.265625 -1.21875 C 3.390625 -1.457031 3.476562 -1.707031 3.53125 -1.96875 C 3.59375 -2.238281 3.625 -2.484375 3.625 -2.703125 L 3.625 -24.875 C 3.625 -25.070312 3.59375 -25.289062 3.53125 -25.53125 C 3.476562 -25.78125 3.390625 -26.015625 3.265625 -26.234375 C 3.140625 -26.460938 2.992188 -26.648438 2.828125 -26.796875 C 2.660156 -26.953125 2.46875 -27.03125 2.25 -27.03125 L 2.03125 -27.03125 Z M 2.03125 -27.453125 "/></g></g></g><g fill="#ffffff" fill-opacity="1"><g transform="translate(180.279905, 262.095412)"><g><path d="M 1.828125 -0.421875 L 2.03125 -0.421875 C 2.226562 -0.421875 2.410156 -0.503906 2.578125 -0.671875 C 2.742188 -0.835938 2.890625 -1.03125 3.015625 -1.25 C 3.140625 -1.46875 3.226562 -1.707031 3.28125 -1.96875 C 3.34375 -2.238281 3.375 -2.484375 3.375 -2.703125 L 3.375 -24.875 C 3.375 -25.070312 3.34375 -25.289062 3.28125 -25.53125 C 3.226562 -25.78125 3.144531 -26.015625 3.03125 -26.234375 C 2.925781 -26.460938 2.789062 -26.648438 2.625 -26.796875 C 2.457031 -26.953125 2.257812 -27.03125 2.03125 -27.03125 L 1.828125 -27.03125 L 1.828125 -27.453125 L 9.859375 -27.453125 C 12.046875 -27.453125 14.015625 -27.070312 15.765625 -26.3125 C 17.515625 -25.550781 18.988281 -24.523438 20.1875 -23.234375 C 21.394531 -21.941406 22.316406 -20.460938 22.953125 -18.796875 C 23.597656 -17.140625 23.921875 -15.40625 23.921875 -13.59375 C 23.921875 -11.90625 23.613281 -10.25 23 -8.625 C 22.394531 -7.007812 21.476562 -5.5625 20.25 -4.28125 C 19.03125 -3.007812 17.503906 -1.976562 15.671875 -1.1875 C 13.847656 -0.394531 11.726562 0 9.3125 0 L 1.828125 0 Z M 21.09375 -12.984375 C 21.09375 -14.753906 20.769531 -16.425781 20.125 -18 C 19.488281 -19.582031 18.59375 -20.960938 17.4375 -22.140625 C 16.289062 -23.328125 14.929688 -24.265625 13.359375 -24.953125 C 11.796875 -25.648438 10.101562 -26 8.28125 -26 L 6.15625 -26 L 6.15625 -1.453125 L 8.359375 -1.453125 C 9.859375 -1.453125 11.363281 -1.679688 12.875 -2.140625 C 14.382812 -2.597656 15.75 -3.304688 16.96875 -4.265625 C 18.1875 -5.222656 19.175781 -6.421875 19.9375 -7.859375 C 20.707031 -9.304688 21.09375 -11.015625 21.09375 -12.984375 Z M 21.09375 -12.984375 "/></g></g><g transform="translate(205.900003, 262.095412)"><g><path d="M 1.875 -0.421875 L 2.078125 -0.421875 C 2.296875 -0.421875 2.488281 -0.492188 2.65625 -0.640625 C 2.820312 -0.796875 2.96875 -0.984375 3.09375 -1.203125 C 3.21875 -1.421875 3.316406 -1.65625 3.390625 -1.90625 C 3.460938 -2.15625 3.5 -2.394531 3.5 -2.625 L 3.5 -24.875 C 3.5 -25.070312 3.460938 -25.289062 3.390625 -25.53125 C 3.316406 -25.78125 3.21875 -26.015625 3.09375 -26.234375 C 2.96875 -26.460938 2.820312 -26.648438 2.65625 -26.796875 C 2.488281 -26.953125 2.296875 -27.03125 2.078125 -27.03125 L 1.875 -27.03125 L 1.875 -27.453125 L 17.890625 -27.453125 L 17.890625 -23.578125 L 17.46875 -23.578125 C 17.414062 -24.222656 17.164062 -24.785156 16.71875 -25.265625 C 16.28125 -25.753906 15.585938 -26 14.640625 -26 L 6.28125 -26 L 6.28125 -15.46875 L 13.1875 -15.46875 C 13.820312 -15.46875 14.351562 -15.660156 14.78125 -16.046875 C 15.21875 -16.441406 15.4375 -16.898438 15.4375 -17.421875 L 15.84375 -17.421875 L 15.84375 -12.234375 L 15.4375 -12.234375 C 15.4375 -12.734375 15.226562 -13.160156 14.8125 -13.515625 C 14.394531 -13.878906 13.851562 -14.0625 13.1875 -14.0625 L 6.28125 -14.0625 L 6.28125 -1.453125 L 15.390625 -1.453125 C 15.921875 -1.453125 16.378906 -1.578125 16.765625 -1.828125 C 17.148438 -2.078125 17.472656 -2.375 17.734375 -2.71875 C 18.003906 -3.070312 18.203125 -3.445312 18.328125 -3.84375 C 18.453125 -4.25 18.515625 -4.585938 18.515625 -4.859375 L 18.921875 -4.859375 L 18.921875 0 L 1.875 0 Z M 1.875 -0.421875 "/></g></g><g transform="translate(226.071671, 262.095412)"><g><path d="M 16.515625 -26.375 C 14.460938 -26.375 12.679688 -26.003906 11.171875 -25.265625 C 9.660156 -24.535156 8.40625 -23.578125 7.40625 -22.390625 C 6.40625 -21.210938 5.660156 -19.890625 5.171875 -18.421875 C 4.691406 -16.953125 4.453125 -15.5 4.453125 -14.0625 C 4.453125 -12.425781 4.769531 -10.820312 5.40625 -9.25 C 6.039062 -7.6875 6.921875 -6.300781 8.046875 -5.09375 C 9.171875 -3.882812 10.476562 -2.910156 11.96875 -2.171875 C 13.46875 -1.441406 15.09375 -1.078125 16.84375 -1.078125 C 17.34375 -1.078125 17.929688 -1.132812 18.609375 -1.25 C 19.285156 -1.363281 19.957031 -1.578125 20.625 -1.890625 C 21.289062 -2.210938 21.90625 -2.664062 22.46875 -3.25 C 23.039062 -3.832031 23.484375 -4.59375 23.796875 -5.53125 L 24.203125 -5.53125 L 24.203125 -0.921875 C 23.785156 -0.921875 23.347656 -0.863281 22.890625 -0.75 C 22.441406 -0.632812 21.9375 -0.507812 21.375 -0.375 C 20.65625 -0.175781 19.859375 0.00390625 18.984375 0.171875 C 18.109375 0.335938 17.1875 0.421875 16.21875 0.421875 C 13.8125 0.421875 11.691406 0.00390625 9.859375 -0.828125 C 8.023438 -1.660156 6.5 -2.742188 5.28125 -4.078125 C 4.0625 -5.410156 3.144531 -6.914062 2.53125 -8.59375 C 1.925781 -10.269531 1.625 -11.96875 1.625 -13.6875 C 1.625 -15.40625 1.925781 -17.109375 2.53125 -18.796875 C 3.144531 -20.492188 4.078125 -22.015625 5.328125 -23.359375 C 6.578125 -24.703125 8.144531 -25.789062 10.03125 -26.625 C 11.914062 -27.457031 14.128906 -27.875 16.671875 -27.875 C 17.585938 -27.875 18.410156 -27.789062 19.140625 -27.625 C 19.878906 -27.457031 20.539062 -27.289062 21.125 -27.125 C 21.539062 -26.976562 21.921875 -26.867188 22.265625 -26.796875 C 22.617188 -26.734375 22.960938 -26.703125 23.296875 -26.703125 L 23.296875 -22.09375 L 22.875 -22.09375 C 22.707031 -22.945312 22.398438 -23.65625 21.953125 -24.21875 C 21.515625 -24.789062 20.992188 -25.226562 20.390625 -25.53125 C 19.796875 -25.84375 19.160156 -26.0625 18.484375 -26.1875 C 17.804688 -26.3125 17.148438 -26.375 16.515625 -26.375 Z M 16.515625 -26.375 "/></g></g><g transform="translate(251.982906, 262.095412)"><g><path d="M 15.890625 -27.875 C 18.054688 -27.875 20 -27.488281 21.71875 -26.71875 C 23.4375 -25.957031 24.894531 -24.929688 26.09375 -23.640625 C 27.300781 -22.359375 28.226562 -20.863281 28.875 -19.15625 C 29.53125 -17.445312 29.859375 -15.664062 29.859375 -13.8125 C 29.859375 -11.726562 29.476562 -9.8125 28.71875 -8.0625 C 27.957031 -6.320312 26.910156 -4.828125 25.578125 -3.578125 C 24.242188 -2.328125 22.695312 -1.347656 20.9375 -0.640625 C 19.175781 0.0664062 17.300781 0.421875 15.3125 0.421875 C 13.175781 0.421875 11.253906 0.0351562 9.546875 -0.734375 C 7.835938 -1.515625 6.394531 -2.539062 5.21875 -3.8125 C 4.039062 -5.09375 3.128906 -6.566406 2.484375 -8.234375 C 1.847656 -9.898438 1.53125 -11.632812 1.53125 -13.4375 C 1.53125 -15.207031 1.847656 -16.957031 2.484375 -18.6875 C 3.128906 -20.425781 4.066406 -21.972656 5.296875 -23.328125 C 6.535156 -24.691406 8.039062 -25.789062 9.8125 -26.625 C 11.59375 -27.457031 13.617188 -27.875 15.890625 -27.875 Z M 15.84375 -1.046875 C 17.707031 -1.128906 19.335938 -1.550781 20.734375 -2.3125 C 22.128906 -3.070312 23.296875 -4.039062 24.234375 -5.21875 C 25.179688 -6.394531 25.882812 -7.691406 26.34375 -9.109375 C 26.800781 -10.523438 27.03125 -11.925781 27.03125 -13.3125 C 27.03125 -14.832031 26.753906 -16.367188 26.203125 -17.921875 C 25.648438 -19.472656 24.859375 -20.878906 23.828125 -22.140625 C 22.804688 -23.410156 21.582031 -24.4375 20.15625 -25.21875 C 18.726562 -26.007812 17.125 -26.40625 15.34375 -26.40625 C 13.625 -26.40625 12.082031 -26.023438 10.71875 -25.265625 C 9.363281 -24.503906 8.207031 -23.523438 7.25 -22.328125 C 6.300781 -21.140625 5.578125 -19.8125 5.078125 -18.34375 C 4.578125 -16.875 4.328125 -15.429688 4.328125 -14.015625 C 4.328125 -12.492188 4.617188 -10.960938 5.203125 -9.421875 C 5.785156 -7.878906 6.585938 -6.484375 7.609375 -5.234375 C 8.640625 -3.992188 9.851562 -2.984375 11.25 -2.203125 C 12.65625 -1.429688 14.1875 -1.046875 15.84375 -1.046875 Z M 15.84375 -1.046875 "/></g></g><g transform="translate(283.633708, 262.095412)"><g><path d="M 7.53125 -0.421875 L 7.734375 -0.421875 L 7.734375 0 L 1.875 0 L 1.875 -0.421875 L 2.078125 -0.421875 C 2.273438 -0.421875 2.457031 -0.503906 2.625 -0.671875 C 2.789062 -0.835938 2.9375 -1.03125 3.0625 -1.25 C 3.1875 -1.46875 3.273438 -1.707031 3.328125 -1.96875 C 3.378906 -2.238281 3.40625 -2.484375 3.40625 -2.703125 L 3.40625 -24.875 C 3.40625 -25.070312 3.378906 -25.289062 3.328125 -25.53125 C 3.273438 -25.78125 3.1875 -26.015625 3.0625 -26.234375 C 2.9375 -26.460938 2.789062 -26.648438 2.625 -26.796875 C 2.457031 -26.953125 2.273438 -27.03125 2.078125 -27.03125 L 1.875 -27.03125 L 1.875 -27.453125 L 9.109375 -27.453125 C 11.878906 -27.453125 14.019531 -26.910156 15.53125 -25.828125 C 17.039062 -24.742188 17.796875 -23.148438 17.796875 -21.046875 C 17.796875 -19.992188 17.625 -19.070312 17.28125 -18.28125 C 16.9375 -17.488281 16.472656 -16.804688 15.890625 -16.234375 C 15.304688 -15.671875 14.617188 -15.210938 13.828125 -14.859375 C 13.035156 -14.515625 12.195312 -14.257812 11.3125 -14.09375 L 14.3125 -9.53125 C 15.03125 -8.414062 15.765625 -7.320312 16.515625 -6.25 C 17.265625 -5.1875 18 -4.085938 18.71875 -2.953125 C 18.914062 -2.671875 19.128906 -2.378906 19.359375 -2.078125 C 19.597656 -1.773438 19.847656 -1.5 20.109375 -1.25 C 20.367188 -1 20.644531 -0.796875 20.9375 -0.640625 C 21.226562 -0.492188 21.53125 -0.421875 21.84375 -0.421875 L 21.84375 0 L 20.046875 0 C 18.941406 0 18.035156 -0.269531 17.328125 -0.8125 C 16.617188 -1.351562 16.03125 -1.984375 15.5625 -2.703125 C 14.3125 -4.535156 13.066406 -6.394531 11.828125 -8.28125 C 10.597656 -10.164062 9.375 -12.019531 8.15625 -13.84375 C 7.84375 -13.875 7.515625 -13.910156 7.171875 -13.953125 C 6.828125 -13.992188 6.503906 -14.039062 6.203125 -14.09375 L 6.203125 -2.703125 C 6.203125 -2.484375 6.226562 -2.238281 6.28125 -1.96875 C 6.332031 -1.707031 6.421875 -1.46875 6.546875 -1.25 C 6.671875 -1.03125 6.8125 -0.835938 6.96875 -0.671875 C 7.125 -0.503906 7.3125 -0.421875 7.53125 -0.421875 Z M 6.203125 -26.03125 L 6.203125 -15.46875 L 6.40625 -15.46875 C 6.625 -15.445312 6.972656 -15.425781 7.453125 -15.40625 C 7.941406 -15.394531 8.550781 -15.390625 9.28125 -15.390625 C 9.863281 -15.390625 10.476562 -15.476562 11.125 -15.65625 C 11.78125 -15.84375 12.390625 -16.148438 12.953125 -16.578125 C 13.523438 -17.003906 14 -17.5625 14.375 -18.25 C 14.75 -18.945312 14.9375 -19.820312 14.9375 -20.875 C 14.9375 -21.925781 14.734375 -22.785156 14.328125 -23.453125 C 13.921875 -24.117188 13.363281 -24.644531 12.65625 -25.03125 C 11.957031 -25.425781 11.109375 -25.691406 10.109375 -25.828125 C 9.109375 -25.960938 8.015625 -26.03125 6.828125 -26.03125 Z M 6.203125 -26.03125 "/></g></g></g></svg>