<svg xmlns="http://www.w3.org/2000/svg" xmlns:xlink="http://www.w3.org/1999/xlink" width="500" zoomAndPan="magnify" viewBox="0 0 375 374.999991" height="500" preserveAspectRatio="xMidYMid meet" version="1.0"><defs><g/><clipPath id="d20c195d76"><path d="M 154.722656 126.796875 L 170.953125 126.796875 L 170.953125 188.019531 L 154.722656 188.019531 Z M 154.722656 126.796875 " clip-rule="nonzero"/></clipPath><clipPath id="6c6badefa5"><path d="M 166.953125 126.796875 L 207.855469 126.796875 L 207.855469 167.699219 L 166.953125 167.699219 Z M 166.953125 126.796875 " clip-rule="nonzero"/></clipPath><clipPath id="cbbfe95a2a"><path d="M 117.816406 132.109375 L 201.253906 132.109375 L 201.253906 215.546875 L 117.816406 215.546875 Z M 117.816406 132.109375 " clip-rule="nonzero"/></clipPath><clipPath id="6427cb2bae"><path d="M 159.535156 132.109375 C 136.492188 132.109375 117.816406 150.785156 117.816406 173.828125 C 117.816406 196.867188 136.492188 215.546875 159.535156 215.546875 C 182.574219 215.546875 201.253906 196.867188 201.253906 173.828125 C 201.253906 150.785156 182.574219 132.109375 159.535156 132.109375 Z M 159.535156 132.109375 " clip-rule="nonzero"/></clipPath></defs><g clip-path="url(#d20c195d76)"><path fill="#ffffff" d="M 154.722656 126.796875 L 170.953125 126.796875 L 170.953125 188.035156 L 154.722656 188.035156 Z M 154.722656 126.796875 " fill-opacity="1" fill-rule="nonzero"/></g><g clip-path="url(#6c6badefa5)"><path fill="#727272" d="M 207.855469 126.800781 L 207.855469 167.761719 C 207.855469 166.363281 207.785156 164.96875 207.644531 163.582031 C 207.507812 162.214844 207.300781 160.859375 207.023438 159.511719 C 206.753906 158.191406 206.414062 156.871094 206.015625 155.585938 C 205.621094 154.316406 205.15625 153.050781 204.636719 151.824219 C 203.605469 149.378906 202.34375 147.0625 200.859375 144.863281 C 199.386719 142.683594 197.71875 140.660156 195.859375 138.800781 C 193.996094 136.9375 191.976562 135.273438 189.792969 133.796875 C 187.597656 132.3125 185.277344 131.054688 182.835938 130.019531 C 181.609375 129.5 180.34375 129.039062 179.070312 128.640625 C 177.785156 128.242188 176.464844 127.902344 175.144531 127.632812 C 173.800781 127.359375 172.441406 127.152344 171.078125 127.011719 C 169.683594 126.871094 168.289062 126.800781 166.886719 126.800781 Z M 207.855469 126.800781 " fill-opacity="1" fill-rule="nonzero"/></g><g clip-path="url(#cbbfe95a2a)"><g clip-path="url(#6427cb2bae)"><path fill="#a8a379" d="M 117.816406 132.109375 L 201.253906 132.109375 L 201.253906 215.546875 L 117.816406 215.546875 Z M 117.816406 132.109375 " fill-opacity="1" fill-rule="nonzero"/></g></g><g fill="#ffffff" fill-opacity="1"><g transform="translate(132.061216, 194.198898)"><g><path d="M 9.890625 16.9375 C 13.171875 16.9375 15.234375 14.546875 15.234375 11.265625 L 15.234375 -3.375 C 19.1875 -0.78125 23.546875 0.53125 28.296875 0.53125 C 34.71875 0.53125 40.78125 -2.109375 45.140625 -6.46875 C 49.609375 -10.921875 52.140625 -16.84375 52.140625 -23.3125 C 52.140625 -29.765625 49.5 -35.796875 45.140625 -40.25 C 40.78125 -44.609375 34.71875 -47.25 28.296875 -47.25 C 21.84375 -47.25 15.859375 -44.703125 11.40625 -40.25 C 6.953125 -35.796875 4.359375 -29.765625 4.359375 -23.3125 L 4.359375 11.265625 C 4.359375 12.828125 5 14.296875 6.015625 15.28125 C 7.046875 16.40625 8.375 16.9375 9.890625 16.9375 Z M 28.296875 -10.328125 C 24.78125 -10.328125 21.5 -11.75 19.09375 -14.15625 C 16.703125 -16.546875 15.28125 -19.78125 15.28125 -23.3125 C 15.28125 -26.828125 16.703125 -30.0625 19.09375 -32.46875 C 21.453125 -34.8125 24.78125 -36.234375 28.296875 -36.234375 C 31.828125 -36.234375 35.15625 -34.8125 37.5 -32.46875 C 39.90625 -30.0625 41.28125 -26.828125 41.28125 -23.3125 C 41.28125 -19.78125 39.90625 -16.546875 37.5 -14.15625 C 35.109375 -11.75 31.828125 -10.328125 28.296875 -10.328125 Z M 28.296875 -10.328125 "/></g></g></g></svg>